<svg xmlns="http://www.w3.org/2000/svg" version="1.1" xmlns:xlink="http://www.w3.org/1999/xlink" xmlns:svgjs="http://svgjs.com/svgjs" width="1920" height="700" preserveAspectRatio="none" viewBox="0 0 1920 700"><g mask="url(&quot;#SvgjsMask1060&quot;)" fill="none"><rect width="1920" height="700" x="0" y="0" fill="#1e3266"></rect><path d="M1984 700L0 700 L0 368.34Q47.84 320.18, 96 368.03Q213.67 325.69, 256 443.36Q317.19 344.55, 416 405.73Q489.03 382.76, 512 455.79Q558.68 342.47, 672 389.14Q735.84 356.98, 768 420.81Q871.16 363.98, 928 467.14Q971.01 350.15, 1088 393.16Q1157.87 303.02, 1248 372.89Q1320.45 349.35, 1344 421.8Q1431.81 349.61, 1504 437.41Q1564.82 338.23, 1664 399.04Q1729.48 304.52, 1824 370Q1935.83 321.82, 1984 433.65z" fill="#182f5d"></path><path d="M2016 700L0 700 L0 544.42Q8.71 457.13, 96 465.84Q132.44 406.27, 192 442.71Q273.65 428.36, 288 510Q358.75 484.75, 384 555.51Q395.86 471.37, 480 483.22Q514.35 421.57, 576 455.91Q704.89 424.81, 736 553.7Q810.45 468.15, 896 542.61Q953.89 440.5, 1056 498.4Q1077.93 424.33, 1152 446.27Q1209.45 407.72, 1248 465.17Q1367.07 424.24, 1408 543.31Q1467.88 443.19, 1568 503.07Q1602.62 441.69, 1664 476.3Q1703.22 419.52, 1760 458.75Q1830.54 369.29, 1920 439.83Q1992.45 416.28, 2016 488.74z" fill="#25467d"></path><path d="M2080 700L0 700 L0 610.4Q51.07 565.47, 96 616.54Q156.32 580.86, 192 641.17Q218.81 507.98, 352 534.8Q442.73 465.53, 512 556.26Q627.19 511.45, 672 626.65Q714.44 573.09, 768 615.52Q798.95 550.47, 864 581.43Q888.39 509.82, 960 534.2Q1019.41 497.62, 1056 557.03Q1152.55 493.58, 1216 590.13Q1235.91 514.04, 1312 533.94Q1376.23 502.17, 1408 566.4Q1496.26 558.65, 1504 646.91Q1529.87 576.78, 1600 602.65Q1696.18 538.83, 1760 635Q1834.32 549.32, 1920 623.64Q1963.55 507.19, 2080 550.75z" fill="#356cb1"></path><path d="M1952 700L0 700 L0 643.33Q82.88 630.21, 96 713.09Q149.77 670.87, 192 724.64Q201.48 638.12, 288 647.59Q325.13 588.72, 384 625.84Q458.18 604.02, 480 678.2Q577.67 615.87, 640 713.54Q683.24 596.78, 800 640.02Q863.98 608, 896 671.98Q963.68 643.66, 992 711.35Q1060.92 620.28, 1152 689.2Q1203.42 580.63, 1312 632.05Q1351.7 575.75, 1408 615.45Q1483.68 595.13, 1504 670.82Q1567.83 574.65, 1664 638.49Q1741.21 619.7, 1760 696.92Q1800.61 641.53, 1856 682.14Q1887.36 617.5, 1952 648.86z" fill="white"></path></g><defs><mask id="SvgjsMask1060"><rect width="1920" height="700" fill="#ffffff"></rect></mask></defs></svg>